<svg width="13" height="25" viewBox="0 0 13 25" fill="none" xmlns="http://www.w3.org/2000/svg">
<path d="M12.51 0.75H9.39C5.89 0.75 3.62 3.07 3.62 6.66V9.38H0.49C0.22 9.38 0 9.6 0 9.87V13.81C0 14.08 0.22 14.3 0.49 14.3H3.62V24.26C3.62 24.53 3.84 24.75 4.11 24.75H8.2C8.47 24.75 8.69 24.53 8.69 24.26V14.3H12.36C12.63 14.3 12.85 14.08 12.85 13.81V9.86C12.85 9.59 12.63 9.37 12.36 9.37H8.69V7.06C8.69 5.95 8.96 5.39 10.4 5.39H12.5C12.77 5.39 12.99 5.17 12.99 4.9V1.24C12.99 0.97 12.77 0.75 12.5 0.75H12.51Z" fill="#819EA3"/>
</svg>
