<svg width="25" height="26" viewBox="0 0 25 26" fill="none" xmlns="http://www.w3.org/2000/svg">
<path fill-rule="evenodd" clip-rule="evenodd" d="M20.545 6.14012C20.545 6.96012 19.885 7.63012 19.055 7.62012C18.235 7.62012 17.575 6.96012 17.575 6.13012C17.575 5.30012 18.235 4.65012 19.055 4.65012C19.875 4.65012 20.545 5.31012 20.545 6.13012V6.14012ZM12.455 16.8701C10.175 16.8701 8.32496 15.0301 8.32496 12.7501C8.32496 10.4701 10.165 8.62012 12.445 8.62012C14.725 8.62012 16.575 10.4601 16.575 12.7401C16.575 15.0201 14.725 16.8601 12.455 16.8601V16.8701ZM12.455 6.39012C8.94496 6.39012 6.09496 9.24012 6.09496 12.7501C6.09496 16.2601 8.94496 19.1101 12.455 19.1101C15.965 19.1101 18.815 16.2601 18.815 12.7501C18.815 9.24012 15.965 6.40012 12.455 6.40012V6.39012ZM12.455 2.60012C15.765 2.60012 16.155 2.61012 17.455 2.67012C18.245 2.67012 19.015 2.82012 19.755 3.10012C20.295 3.30012 20.775 3.61012 21.175 4.03012C21.585 4.43012 21.905 4.92012 22.105 5.45012C22.375 6.19012 22.525 6.96012 22.535 7.75012C22.595 9.06012 22.605 9.45012 22.605 12.7501C22.605 16.0501 22.595 16.4501 22.535 17.7501C22.535 18.5401 22.385 19.3101 22.105 20.0501C21.685 21.1301 20.835 21.9801 19.755 22.4001C19.015 22.6701 18.245 22.8201 17.455 22.8301C16.145 22.8901 15.755 22.9001 12.455 22.9001C9.15496 22.9001 8.75496 22.8901 7.45496 22.8301C6.66496 22.8301 5.89496 22.6801 5.15496 22.4001C4.61496 22.2001 4.13496 21.8901 3.73496 21.4801C3.32496 21.0801 3.00496 20.5901 2.80496 20.0601C2.53496 19.3201 2.38496 18.5501 2.37496 17.7601C2.31496 16.4501 2.30496 16.0601 2.30496 12.7601C2.30496 9.46012 2.31496 9.06012 2.37496 7.76012C2.37496 6.97012 2.52496 6.20012 2.80496 5.46012C3.00496 4.92012 3.31496 4.44012 3.73496 4.04012C4.13496 3.63012 4.62496 3.31012 5.15496 3.11012C5.89496 2.84012 6.66496 2.69012 7.45496 2.68012C8.76496 2.62012 9.15496 2.61012 12.455 2.61012V2.60012ZM12.455 0.370117C9.09496 0.370117 8.67496 0.380117 7.35496 0.440117C6.32496 0.460117 5.31496 0.660117 4.35496 1.01012C3.52496 1.32012 2.77496 1.81012 2.15496 2.44012C1.52496 3.06012 1.03496 3.81012 0.724961 4.63012C0.364961 5.59012 0.174961 6.60012 0.154961 7.63012C0.0949609 8.96012 0.0849609 9.38012 0.0849609 12.7401C0.0849609 16.1001 0.0949609 16.5201 0.154961 17.8401C0.174961 18.8701 0.374961 19.8801 0.724961 20.8401C1.03496 21.6701 1.52496 22.4101 2.15496 23.0301C2.77496 23.6601 3.52496 24.1501 4.34496 24.4701C5.30496 24.8301 6.31496 25.0201 7.34496 25.0501C8.66496 25.1101 9.08496 25.1201 12.445 25.1201C15.805 25.1201 16.225 25.1101 17.545 25.0501C18.575 25.0301 19.585 24.8301 20.545 24.4701C22.205 23.8301 23.525 22.5101 24.165 20.8501C24.525 19.8901 24.715 18.8801 24.745 17.8501C24.805 16.5301 24.815 16.1101 24.815 12.7501C24.815 9.39012 24.805 8.97012 24.745 7.65012C24.725 6.62012 24.525 5.61012 24.165 4.65012C23.855 3.82012 23.365 3.08012 22.735 2.46012C22.125 1.83012 21.385 1.33012 20.555 1.02012C19.595 0.660117 18.585 0.470117 17.555 0.450117C16.235 0.390117 15.815 0.370117 12.455 0.370117Z" fill="#819EA3"/>
</svg>
