<svg width="23" height="23" viewBox="0 0 23 23" fill="none" xmlns="http://www.w3.org/2000/svg">
<path d="M21.2941 0.750106H2.53406C1.65406 0.740106 0.924062 1.44011 0.914062 2.32011V21.1701C0.924062 22.0501 1.65406 22.7601 2.53406 22.7501H21.2841C22.1641 22.7601 22.8941 22.0601 22.9041 21.1701V2.33011C22.8941 1.45011 22.1641 0.740106 21.2841 0.750106H21.2941ZM7.58406 19.1701H4.26406V9.24011H7.58406V19.1701ZM5.92406 7.88011H5.90406C4.95406 7.94011 4.13406 7.23011 4.07406 6.28011C4.01406 5.33011 4.72406 4.51011 5.67406 4.45011C5.76406 4.45011 5.85406 4.45011 5.94406 4.45011C6.89406 4.38011 7.72406 5.09011 7.79406 6.03011C7.86406 6.98011 7.15406 7.81011 6.21406 7.88011C6.11406 7.88011 6.02406 7.88011 5.92406 7.88011ZM19.5641 19.1701H16.2441V13.8501C16.2441 12.5101 15.7641 11.6001 14.5641 11.6001C13.8041 11.6001 13.1241 12.0901 12.8641 12.8101C12.7741 13.0701 12.7441 13.3401 12.7541 13.6101V19.1601H9.42406C9.42406 19.1601 9.46406 10.1601 9.42406 9.23011H12.7441V10.6401C13.3641 9.58011 14.5141 8.95011 15.7341 9.00011C17.9241 9.00011 19.5641 10.4201 19.5641 13.4701V19.1601V19.1701ZM12.7241 10.7101L12.7741 10.6401V10.7101H12.7241Z" fill="#819EA3"/>
</svg>
