<svg width="31" height="21" viewBox="0 0 31 21" fill="none" xmlns="http://www.w3.org/2000/svg">
<path d="M29.5722 2.47C28.4922 1.25 26.4922 0.75 22.6722 0.75H8.81219C4.90219 0.75 2.87219 1.28 1.79219 2.58C0.742188 3.84 0.742188 5.71 0.742188 8.29V13.21C0.742188 18.21 1.99219 20.75 8.81219 20.75H22.6722C25.9822 20.75 27.8222 20.31 29.0022 19.24C30.2222 18.13 30.7422 16.33 30.7422 13.21V8.29C30.7422 5.57 30.6622 3.69 29.5722 2.47ZM20.2422 11.55L14.1222 14.65C13.8322 14.8 13.4822 14.79 13.2022 14.62C12.9222 14.46 12.7522 14.16 12.7522 13.84V7.66C12.7522 7.34 12.9222 7.04 13.2022 6.88C13.4822 6.71 13.8322 6.7 14.1222 6.85L20.2422 9.93C20.6922 10.15 20.8722 10.69 20.6522 11.13C20.5622 11.31 20.4222 11.45 20.2422 11.54V11.55Z" fill="#819EA3"/>
</svg>
